<?xml version="1.0" encoding="utf-8"?>
<!-- Generator: Adobe Illustrator 27.5.0, SVG Export Plug-In . SVG Version: 6.00 Build 0)  -->
<svg version="1.1" id="Capa_1" xmlns="http://www.w3.org/2000/svg" xmlns:xlink="http://www.w3.org/1999/xlink" x="0px" y="0px"
	 viewBox="0 0 1898 2372" style="enable-background:new 0 0 1898 2372;" xml:space="preserve">
<path style="fill:#128348;" d="M948.683,2150.838c-24.424,0-47.312-11.912-61.326-31.916l-93.081-132.873
	c-343.816,15.787-602.211,83.233-602.211,164.048c0,92.532,338.75,167.544,756.619,167.544
	c417.869,0,756.619-75.012,756.619-167.544c0-80.815-258.396-148.261-602.212-164.048l-93.081,132.873
	C995.996,2138.926,973.106,2150.838,948.683,2150.838z"/>
<path style="fill:#128348;" d="M1020.625,1859.902c-15.13-87.572-130.732-140.708-258.203-118.684
	c-14.276,2.467-28.075,5.796-41.34,9.844l192.509,274.806C987.094,1986.947,1031.547,1923.114,1020.625,1859.902z"/>
<path style="fill:#00743D;" d="M1235.954,1665.883c-89.573,33.081-186.347,51.173-287.271,51.173
	c-100.924,0-197.698-18.092-287.271-51.173l59.67,85.179c13.264-4.048,27.064-7.377,41.34-9.844
	c127.471-22.024,243.073,31.112,258.203,118.684c10.922,63.212-33.532,127.045-107.034,165.966l35.092,50.095L1235.954,1665.883z"/>
<ellipse transform="matrix(0.7071 -0.7071 0.7071 0.7071 -348.3238 930.1953)" style="fill:#128348;" cx="948.683" cy="885.562" rx="756.619" ry="756.619"/>
<path style="fill:#00743D;" d="M1011.875,157.337c144.845,75.23,254.53,209.03,297.593,369.804c2.54,1.761,5.018,3.6,7.45,5.499
	c0.201,0.157,0.401,0.315,0.6,0.472c2.377,1.875,4.705,3.808,6.972,5.81c0.065,0.057,0.131,0.113,0.196,0.17
	c7.053,6.248,13.552,13.098,19.432,20.471c0.274,0.344,0.543,0.692,0.815,1.038c1.656,2.112,3.261,4.264,4.813,6.458
	c0.263,0.372,0.532,0.739,0.792,1.113c3.56,5.122,6.847,10.446,9.811,15.974c0.083,0.156,0.159,0.317,0.242,0.474
	c1.322,2.484,2.573,5.011,3.767,7.57c0.313,0.67,0.61,1.347,0.914,2.021c0.952,2.115,1.86,4.252,2.723,6.414
	c0.311,0.778,0.622,1.554,0.921,2.337c0.867,2.274,1.678,4.573,2.445,6.895c0.199,0.601,0.416,1.193,0.607,1.797
	c0.936,2.95,1.801,5.932,2.57,8.951c0.079,0.31,0.139,0.627,0.217,0.937c0.656,2.641,1.245,5.307,1.771,7.998
	c0.185,0.943,0.34,1.895,0.508,2.845c0.374,2.113,0.712,4.238,1.003,6.38c0.145,1.065,0.283,2.131,0.407,3.203
	c0.252,2.168,0.45,4.351,0.615,6.544c0.074,0.969,0.165,1.932,0.222,2.906c0.181,3.142,0.296,6.3,0.296,9.487
	c0,3.017-0.096,6.011-0.258,8.988c-0.052,0.947-0.147,1.88-0.215,2.823c-0.146,2.025-0.304,4.047-0.522,6.051
	c-0.121,1.102-0.276,2.192-0.418,3.286c-0.238,1.836-0.493,3.666-0.792,5.482c-0.185,1.122-0.39,2.237-0.599,3.351
	c-0.333,1.787-0.692,3.563-1.083,5.328c-0.239,1.08-0.485,2.157-0.745,3.23c-0.443,1.821-0.924,3.626-1.427,5.423
	c-0.273,0.973-0.537,1.95-0.828,2.916c-0.594,1.977-1.239,3.93-1.906,5.875c-0.257,0.751-0.495,1.511-0.764,2.257
	c-0.939,2.612-1.935,5.196-3.002,7.745c-0.026,0.061-0.047,0.124-0.073,0.185c-1.152,2.743-2.378,5.445-3.674,8.109
	c-0.057,0.118-0.121,0.232-0.179,0.349c-1.199,2.45-2.46,4.862-3.776,7.241c-0.279,0.503-0.576,0.995-0.859,1.495
	c-1.128,1.99-2.289,3.957-3.498,5.894c-0.367,0.587-0.746,1.165-1.12,1.747c-1.183,1.843-2.399,3.661-3.653,5.451
	c-0.399,0.571-0.803,1.137-1.21,1.702c-1.307,1.816-2.652,3.602-4.032,5.361c-0.373,0.475-0.741,0.953-1.118,1.423
	c-1.534,1.912-3.111,3.785-4.729,5.625c-0.245,0.278-0.481,0.563-0.729,0.841c-5.829,6.543-12.173,12.614-18.979,18.144
	c-3.326,17.77-7.419,35.273-12.311,52.445c3.68-1.867,7.289-3.852,10.836-5.932c0.168-0.099,0.338-0.194,0.506-0.293
	c3.565-2.104,7.063-4.31,10.483-6.623c0.076-0.051,0.149-0.107,0.224-0.158c3.05-2.068,6.02-4.244,8.947-6.474
	c0.694-0.53,1.389-1.059,2.077-1.598c2.997-2.345,5.948-4.748,8.804-7.258c3.935,1.956,7.877,4.034,11.846,6.388
	c24.253,13.375,46.311,30.256,65.488,49.958c6.392,6.567,12.465,13.448,18.192,20.617c1.909,2.39,3.78,4.811,5.611,7.264
	c3.663,4.906,7.169,9.935,10.51,15.082c10.023,15.44,18.564,31.93,25.421,49.269c5.714,14.449,10.258,29.486,13.515,44.996
	c1.303,6.203,2.4,12.483,3.283,18.83c1.768,12.694,2.681,25.661,2.681,38.838v0.001v1.129c0,3.612-0.07,9.199-0.21,16.247
	c-0.07,3.525-0.157,7.414-0.262,11.605c-0.104,4.191-0.226,8.682-0.365,13.411c-0.138,4.729-0.294,9.694-0.467,14.833
	c-0.518,15.416-1.188,32.385-2.006,49.175c-22.198,4.816-45.073,9.105-68.551,12.792c-0.32-6.33-0.664-12.756-1.028-19.185
	c-0.364-6.429-0.746-12.862-1.141-19.208c-0.396-6.345-0.805-12.603-1.221-18.682c-0.416-6.079-0.84-11.979-1.266-17.608
	c-0.639-8.444-1.281-16.28-1.908-23.198c-0.208-2.306-0.416-4.511-0.621-6.601c-0.41-4.182-0.81-7.911-1.195-11.096
	c-0.384-3.184-0.754-5.823-1.102-7.827c0.075,2.135,0.089,4.908,0.049,8.227c-0.041,3.318-0.136,7.181-0.28,11.495
	c-0.288,8.627-0.77,19.059-1.396,30.543c-0.313,5.743-0.661,11.748-1.039,17.923c-0.756,12.351-1.631,25.38-2.573,38.337
	c-0.471,6.479-0.959,12.94-1.458,19.288c-11.51,1.668-23.154,3.192-34.922,4.57c-35.302,4.134-71.718,6.952-108.999,8.384
	c0.449-13.195,0.793-25.411,1.024-35.564c0.116-5.076,0.204-9.638,0.263-13.547c0.03-1.955,0.052-3.747,0.066-5.358
	c0.015-1.612,0.023-3.044,0.023-4.279v-1.129c0-6.005-0.209-11.979-0.547-17.93c-0.038-0.686-0.061-1.375-0.105-2.06
	c-0.36-5.7-0.892-11.368-1.556-17.005c-0.098-0.838-0.193-1.676-0.298-2.512c-0.711-5.645-1.565-11.256-2.573-16.826
	c-0.121-0.665-0.249-1.328-0.374-1.991c-1.088-5.799-2.309-11.561-3.713-17.266c-0.037-0.151-0.079-0.301-0.116-0.451
	c-4.506-18.192-10.597-35.874-18.163-52.857c-0.047-0.105-0.094-0.211-0.141-0.317c-2.53-5.659-5.218-11.242-8.069-16.739
	c-7.74,12.276-15.917,24.249-24.518,35.892c5.373,12.517,9.836,25.511,13.353,38.89c0.079,0.301,0.16,0.6,0.238,0.901
	c2.212,8.53,4.027,17.217,5.432,26.042c0.116,0.73,0.232,1.459,0.343,2.19c1.285,8.506,2.184,17.136,2.684,25.874
	c0.06,1.052,0.115,2.104,0.164,3.159c0.198,4.315,0.335,8.645,0.335,13.007v1.129l0,0c0,14.448-1.129,60.499-3.311,105.272
	c-22.198,4.815-45.073,9.104-68.551,12.791c-0.32-6.33-0.664-12.755-1.028-19.185c-0.364-6.429-0.745-12.863-1.141-19.208
	c-0.395-6.345-0.804-12.603-1.22-18.682c-0.416-6.078-0.841-11.979-1.266-17.608c-1.703-22.517-3.433-40.709-4.825-48.722
	c0.112,3.183,0.088,7.791-0.051,13.5c-0.047,1.951-0.108,4.024-0.181,6.222c-0.144,4.314-0.336,9.078-0.571,14.201
	c-0.123,2.688-0.259,5.486-0.405,8.358c-0.27,5.334-0.576,10.951-0.915,16.784c-0.347,5.982-0.727,12.181-1.133,18.502
	c-1.015,15.804-2.195,32.374-3.441,48.247c-16.547,2.397-33.379,4.486-50.444,6.287c-23.775,2.51-48.015,4.448-72.678,5.752
	c-25.419,1.344-51.274,2.032-77.488,2.032c-12.274,0-24.442-0.205-36.557-0.503c-2.427-0.061-4.853-0.119-7.274-0.191
	c-12.223-0.362-24.372-0.846-36.409-1.504c-0.236-0.013-0.469-0.031-0.704-0.044c-12.511-0.69-24.897-1.562-37.186-2.564
	c-0.796-0.065-1.596-0.123-2.392-0.19c-12.637-1.052-25.15-2.261-37.526-3.634c-16.02,1.318-32.211,2.023-48.565,2.023
	c-114.884,0-222.12-33.208-312.725-90.456c-11.575-2.155-22.991-4.449-34.211-6.884c-0.267-5.678-0.518-11.376-0.754-17.028
	c0,0,0-0.002,0-0.003c-72.369-53.359-132.155-122.85-173.885-203.194c32.042,374.112,345.814,667.78,728.224,667.78
	c403.705,0,730.974-327.267,730.974-730.973C1679.657,503.149,1385.987,189.379,1011.875,157.337z"/>
<path style="fill:#F1F0F1;" d="M1307.081,839.67c-27.128,13.763-57.763,21.566-90.21,21.566c-34.567,0-67.115-8.804-95.526-24.281
	c-4.228,7.174-8.886,14.06-13.945,20.628c1.291,0.727,2.575,1.387,3.87,2.15c55.684,30.839,99.691,77.019,127.994,131.567
	C1268.626,944.733,1291.661,893.794,1307.081,839.67z"/>
<path style="fill:#F1F0F1;" d="M1338.371,769.081c-5.83,6.541-12.174,12.615-18.979,18.144c6.573-35.119,10.05-71.315,10.05-108.311
	c0-52.484-7.019-103.341-19.993-151.786c2.546,1.765,5.032,3.609,7.47,5.513c-2.432-1.899-4.911-3.738-7.45-5.499
	c-26.287-18.232-58.184-28.944-92.597-28.944c-60.635,0-113.421,33.236-141.409,82.419c44.854,36.769,73.532,92.577,73.532,154.966
	c0,23.569-4.123,46.186-11.632,67.206c23.522,13.212,50.61,20.825,79.51,20.825c38.868,0,74.537-13.648,102.521-36.388
	C1326.198,781.695,1332.542,775.624,1338.371,769.081z"/>
<path style="fill:#F1F0F1;" d="M463.723,1181.771c2.559-50.566,6.697-107.378,9.406-123.406
	c-0.602,17.081,2.709,75.096,6.772,125.889c45.995,6.618,94.198,10.976,143.902,12.881c-0.884-26.579-1.356-49.048-1.356-58.751
	v-1.129c0-115.084,62.437-221.171,163.03-277.178c1.456-0.928,2.894-1.752,4.341-2.628c-5.02-6.527-9.642-13.369-13.841-20.494
	c-28.411,15.477-60.959,24.281-95.526,24.281c-50.767,0-97.153-19.017-132.495-50.257c-3.758,2.052-7.545,4.258-11.394,6.744
	c-86.234,47.556-144.702,139.434-144.702,244.856v1.129c0,12.614,0.861,49.323,2.482,88.235
	c11.39,8.396,23.098,16.369,35.092,23.942C440.72,1177.985,452.155,1179.954,463.723,1181.771z"/>
<path style="fill:#F1F0F1;" d="M680.452,498.196c-89.861,0-162.708,72.847-162.708,162.708c0,89.861,72.846,162.708,162.708,162.708
	c28.899,0,55.988-7.613,79.51-20.825c-7.51-21.021-11.632-43.638-11.632-67.206c0-62.389,28.678-118.197,73.532-154.966
	C793.873,531.432,741.087,498.196,680.452,498.196z"/>
<path style="fill:#F1F0F1;" d="M790.6,1264.296c173.638-14.279,326.103-104.396,424.132-237.083
	c5.37,12.513,9.845,25.499,13.368,38.869c-3.517-13.379-7.98-26.372-13.353-38.89c-24.623-57.369-67.88-104.863-122.152-134.793
	c-3.969-2.354-7.912-4.432-11.846-6.388c-35.292,31.026-81.513,49.902-132.086,49.902c-50.767,0-97.153-19.017-132.495-50.257
	c-3.758,2.052-7.545,4.258-11.394,6.744c-86.233,47.557-144.701,139.434-144.701,244.856v1.129c0,14.448,1.129,60.499,3.235,105.272
	c22.198,4.815,45.149,9.104,68.626,12.791c2.559-50.566,6.697-107.378,9.406-123.406c-0.602,17.081,2.709,75.097,6.773,125.889
	c13.956,2.008,28.146,3.775,42.487,5.365c12.376,1.373,24.89,2.582,37.526,3.634C815.492,1266.875,802.974,1265.669,790.6,1264.296z
	"/>
<ellipse transform="matrix(0.9791 -0.2034 0.2034 0.9791 -129.7785 208.3191)" style="fill:#F1F0F1;" cx="948.662" cy="735.581" rx="162.708" ry="162.708"/>
<path style="fill:#D3D1D2;" d="M1247.474,1008.357c7.567,16.982,13.657,34.665,18.163,52.857c0.037,0.151,0.079,0.3,0.116,0.451
	c1.404,5.705,2.625,11.467,3.713,17.266c0.125,0.664,0.253,1.326,0.374,1.991c1.008,5.57,1.862,11.182,2.573,16.826
	c0.105,0.836,0.2,1.674,0.298,2.512c0.664,5.638,1.196,11.305,1.556,17.005c0.043,0.685,0.066,1.374,0.105,2.06
	c0.337,5.951,0.547,11.924,0.547,17.93v1.129c0,1.235-0.008,2.667-0.023,4.279c-0.015,1.612-0.036,3.404-0.066,5.358
	c-0.059,3.909-0.147,8.471-0.263,13.547c-0.232,10.153-0.576,22.37-1.024,35.564c37.281-1.432,73.697-4.25,108.999-8.384
	c11.768-1.378,23.412-2.903,34.922-4.57c0.499-6.349,0.987-12.809,1.458-19.288c0.942-12.957,1.817-25.986,2.573-38.337
	c0.378-6.175,0.726-12.181,1.039-17.923c0.626-11.484,1.108-21.916,1.396-30.543c0.144-4.314,0.239-8.177,0.28-11.495
	c0.041-3.318,0.027-6.092-0.049-8.227c0.348,2.004,0.717,4.643,1.102,7.827c0.385,3.184,0.785,6.913,1.195,11.096
	c0.205,2.091,0.412,4.295,0.621,6.601c0.628,6.919,1.27,14.754,1.908,23.198c0.426,5.63,0.85,11.53,1.266,17.608
	c0.416,6.079,0.825,12.337,1.221,18.682c0.396,6.345,0.778,12.779,1.141,19.208c0.363,6.43,0.708,12.855,1.028,19.185
	c23.478-3.687,46.353-7.976,68.551-12.792c0.818-16.79,1.488-33.759,2.006-49.175c0.172-5.138,0.329-10.104,0.467-14.833
	c0.139-4.729,0.261-9.221,0.365-13.411c0.104-4.191,0.192-8.08,0.262-11.605c0.14-7.048,0.21-12.636,0.21-16.247v-1.129v-0.001
	c0-13.177-0.913-26.144-2.681-38.838c-0.884-6.347-1.98-12.627-3.283-18.83c-3.257-15.51-7.801-30.547-13.515-44.996
	c-6.856-17.339-15.398-33.829-25.421-49.269c-3.341-5.147-6.847-10.176-10.51-15.082c-1.831-2.453-3.702-4.875-5.611-7.264
	c-5.727-7.169-11.8-14.05-18.192-20.617c-19.177-19.702-41.235-36.583-65.488-49.958c-3.969-2.354-7.911-4.432-11.846-6.388
	c-2.857,2.511-5.807,4.913-8.804,7.258c-0.688,0.539-1.382,1.068-2.077,1.598c-2.927,2.229-5.897,4.405-8.947,6.474
	c-0.075,0.051-0.148,0.107-0.224,0.158c-3.42,2.313-6.918,4.519-10.483,6.623c-0.168,0.099-0.338,0.195-0.506,0.293
	c-3.548,2.08-7.156,4.065-10.836,5.932l0,0l0,0c-15.42,54.123-38.455,105.063-67.817,151.631l0,0l0,0
	c2.852,5.497,5.54,11.08,8.069,16.739C1247.38,1008.146,1247.427,1008.252,1247.474,1008.357z"/>
<path style="fill:#D3D1D2;" d="M1309.449,527.127c12.974,48.446,19.993,99.302,19.993,151.786c0,36.997-3.476,73.193-10.05,108.311
	c6.805-5.529,13.149-11.603,18.979-18.144c0.247-0.277,0.484-0.562,0.729-0.841c1.617-1.839,3.194-3.713,4.729-5.625
	c0.378-0.471,0.746-0.949,1.118-1.423c1.38-1.759,2.724-3.545,4.032-5.361c0.407-0.565,0.81-1.131,1.21-1.702
	c1.255-1.79,2.469-3.61,3.653-5.451c0.374-0.582,0.753-1.16,1.12-1.747c1.209-1.936,2.37-3.905,3.498-5.894
	c0.284-0.5,0.581-0.992,0.859-1.495c1.316-2.378,2.578-4.792,3.776-7.241c0.058-0.117,0.122-0.231,0.179-0.349
	c1.296-2.663,2.521-5.366,3.674-8.109c0.025-0.061,0.047-0.124,0.073-0.185c1.067-2.548,2.063-5.133,3.002-7.745
	c0.268-0.746,0.507-1.506,0.764-2.257c0.667-1.944,1.312-3.898,1.906-5.875c0.291-0.966,0.555-1.942,0.828-2.916
	c0.504-1.797,0.984-3.603,1.427-5.423c0.26-1.072,0.506-2.15,0.745-3.23c0.391-1.765,0.75-3.542,1.083-5.328
	c0.208-1.115,0.414-2.229,0.599-3.351c0.3-1.816,0.553-3.646,0.792-5.482c0.142-1.095,0.297-2.185,0.418-3.286
	c0.219-2.004,0.377-4.026,0.522-6.051c0.068-0.943,0.163-1.876,0.215-2.823c0.162-2.976,0.258-5.971,0.258-8.988
	c0-3.187-0.115-6.346-0.296-9.487c-0.057-0.973-0.148-1.936-0.222-2.906c-0.165-2.193-0.363-4.376-0.615-6.544
	c-0.124-1.072-0.262-2.139-0.407-3.203c-0.292-2.141-0.629-4.267-1.003-6.38c-0.169-0.949-0.323-1.901-0.508-2.845
	c-0.526-2.69-1.115-5.358-1.771-7.998c-0.078-0.31-0.137-0.627-0.217-0.937c-0.77-3.02-1.633-6.002-2.57-8.951
	c-0.191-0.604-0.409-1.195-0.607-1.797c-0.767-2.32-1.577-4.621-2.445-6.895c-0.299-0.784-0.611-1.56-0.921-2.337
	c-0.864-2.161-1.771-4.299-2.723-6.414c-0.304-0.674-0.601-1.352-0.914-2.021c-1.195-2.558-2.445-5.086-3.767-7.57
	c-0.083-0.157-0.158-0.317-0.242-0.474c-2.965-5.526-6.249-10.854-9.811-15.974c-0.26-0.374-0.528-0.741-0.792-1.113
	c-1.553-2.193-3.157-4.347-4.813-6.458c-0.272-0.346-0.541-0.694-0.815-1.038c-5.881-7.37-12.378-14.225-19.432-20.471
	c-0.065-0.057-0.131-0.113-0.196-0.17c-2.267-2.001-4.595-3.935-6.972-5.81c-0.2-0.157-0.399-0.315-0.6-0.472
	C1314.481,530.736,1311.995,528.893,1309.449,527.127z"/>
<path style="fill:#D3D1D2;" d="M395.097,1168.979c11.259,2.443,22.717,4.743,34.333,6.905c0.001,0,0.003,0,0.005,0.001l-0.001-0.001
	c-11.994-7.573-23.702-15.546-35.092-23.942l0,0c0,0.002,0.001,0.004,0.001,0.005c0,0.001,0,0.002,0,0.003
	C394.579,1157.604,394.83,1163.301,395.097,1168.979z"/>
<path style="fill:#D3D1D2;" d="M790.6,1264.296c12.375,1.373,24.892,2.579,37.525,3.634c0.795,0.066,1.596,0.125,2.392,0.19
	c12.286,1.006,24.679,1.87,37.186,2.564c0.236,0.013,0.468,0.031,0.704,0.044c12.034,0.662,24.188,1.14,36.409,1.504
	c2.42,0.073,4.846,0.131,7.274,0.191c12.112,0.301,24.283,0.503,36.557,0.503c26.215,0,52.069-0.688,77.488-2.032
	c24.663-1.304,48.903-3.242,72.678-5.752c17.066-1.802,33.898-3.89,50.444-6.287c1.246-15.873,2.426-32.443,3.441-48.247
	c0.406-6.321,0.786-12.52,1.133-18.502c0.339-5.833,0.644-11.45,0.915-16.784c0.146-2.872,0.282-5.669,0.405-8.358
	c0.235-5.122,0.427-9.887,0.571-14.201c0.073-2.198,0.134-4.271,0.181-6.222c0.138-5.708,0.163-10.317,0.051-13.5v0
	c1.392,8.014,3.122,26.205,4.825,48.723c0.426,5.63,0.85,11.53,1.266,17.608c0.416,6.079,0.825,12.337,1.22,18.682
	c0.396,6.345,0.778,12.779,1.141,19.208c0.364,6.429,0.708,12.854,1.028,19.185c23.478-3.687,46.353-7.976,68.551-12.792
	c2.182-44.772,3.311-90.824,3.311-105.271v-1.129c0-4.362-0.136-8.694-0.335-13.007c-0.049-1.055-0.104-2.107-0.164-3.159
	c-0.501-8.737-1.395-17.369-2.684-25.874c-0.111-0.731-0.227-1.461-0.343-2.19c-1.41-8.823-3.216-17.514-5.432-26.042
	c-0.079-0.301-0.159-0.6-0.238-0.901c-3.522-13.37-7.998-26.356-13.368-38.869C1116.702,1159.9,964.238,1250.017,790.6,1264.296z"/>
<path style="fill:#599765;" d="M562.761,502.034C696.438,359.986,843.924,281.091,788.922,229.33
	c-55.003-51.762-233.839-2.37-367.516,139.678C287.728,511.056,249.832,691.969,304.835,743.731
	C359.837,795.492,429.084,644.082,562.761,502.034z"/>
</svg>
